<mxfile host="www.draw.io" modified="2019-10-16T03:47:24.918Z" agent="Mozilla/5.0 (Macintosh; Intel Mac OS X 10_14_5) AppleWebKit/537.36 (KHTML, like Gecko) Chrome/77.0.3865.90 Safari/537.36" etag="xVR5TNlsdLtkozgkTnpw" version="12.1.1" type="github" pages="1">
  <diagram name="Page-1" id="74e2e168-ea6b-b213-b513-2b3c1d86103e">
    <mxGraphModel dx="2526" dy="744" grid="1" gridSize="10" guides="1" tooltips="1" connect="1" arrows="1" fold="1" page="1" pageScale="1" pageWidth="1100" pageHeight="850" background="#ffffff" math="0" shadow="0">
      <root>
        <mxCell id="0"/>
        <mxCell id="1" parent="0"/>
        <mxCell id="77e6c97f196da883-1" value="用户画像获取 会员列表" style="swimlane;html=1;childLayout=stackLayout;startSize=20;rounded=0;shadow=0;labelBackgroundColor=none;strokeColor=#000000;strokeWidth=1;fillColor=#ffffff;fontFamily=Verdana;fontSize=8;fontColor=#000000;align=center;" parent="1" vertex="1">
          <mxGeometry x="70" y="20" width="960" height="750" as="geometry"/>
        </mxCell>
        <mxCell id="77e6c97f196da883-2" value="integral-api" style="swimlane;html=1;startSize=20;" parent="77e6c97f196da883-1" vertex="1">
          <mxGeometry y="20" width="160" height="730" as="geometry"/>
        </mxCell>
        <mxCell id="77e6c97f196da883-8" value="Controller" style="rounded=1;whiteSpace=wrap;html=1;shadow=0;labelBackgroundColor=none;strokeColor=#000000;strokeWidth=1;fillColor=#ffffff;fontFamily=Verdana;fontSize=8;fontColor=#000000;align=center;" parent="77e6c97f196da883-2" vertex="1">
          <mxGeometry x="20" y="65" width="100" height="60" as="geometry"/>
        </mxCell>
        <mxCell id="77e6c97f196da883-26" style="edgeStyle=orthogonalEdgeStyle;rounded=1;html=1;labelBackgroundColor=none;startArrow=none;startFill=0;startSize=5;endArrow=classicThin;endFill=1;endSize=5;jettySize=auto;orthogonalLoop=1;strokeColor=#000000;strokeWidth=1;fontFamily=Verdana;fontSize=8;fontColor=#000000;" parent="77e6c97f196da883-1" source="77e6c97f196da883-8" target="77e6c97f196da883-11" edge="1">
          <mxGeometry relative="1" as="geometry"/>
        </mxCell>
        <mxCell id="77e6c97f196da883-3" value="activity-platform" style="swimlane;html=1;startSize=20;" parent="77e6c97f196da883-1" vertex="1">
          <mxGeometry x="160" y="20" width="160" height="730" as="geometry"/>
        </mxCell>
        <mxCell id="5xU71n-PB1a8egIvaby4-2" value="" style="edgeStyle=orthogonalEdgeStyle;rounded=0;orthogonalLoop=1;jettySize=auto;html=1;" parent="77e6c97f196da883-3" source="77e6c97f196da883-11" target="5xU71n-PB1a8egIvaby4-1" edge="1">
          <mxGeometry relative="1" as="geometry"/>
        </mxCell>
        <mxCell id="77e6c97f196da883-11" value="execute" style="rounded=1;whiteSpace=wrap;html=1;shadow=0;labelBackgroundColor=none;strokeColor=#000000;strokeWidth=1;fillColor=#ffffff;fontFamily=Verdana;fontSize=8;fontColor=#000000;align=center;" parent="77e6c97f196da883-3" vertex="1">
          <mxGeometry x="30" y="65" width="100" height="60" as="geometry"/>
        </mxCell>
        <mxCell id="5xU71n-PB1a8egIvaby4-1" value="是否降级" style="rhombus;whiteSpace=wrap;html=1;rounded=0;shadow=0;labelBackgroundColor=none;strokeColor=#000000;strokeWidth=1;fillColor=#ffffff;fontFamily=Verdana;fontSize=8;fontColor=#000000;align=center;" parent="77e6c97f196da883-3" vertex="1">
          <mxGeometry x="40" y="160" width="80" height="60" as="geometry"/>
        </mxCell>
        <mxCell id="77e6c97f196da883-4" value="shop-member" style="swimlane;html=1;startSize=20;" parent="77e6c97f196da883-1" vertex="1">
          <mxGeometry x="320" y="20" width="160" height="730" as="geometry"/>
        </mxCell>
        <mxCell id="5xU71n-PB1a8egIvaby4-4" value="queryDB" style="rounded=1;whiteSpace=wrap;html=1;shadow=0;labelBackgroundColor=none;strokeColor=#000000;strokeWidth=1;fillColor=#ffffff;fontFamily=Verdana;fontSize=8;fontColor=#000000;align=center;" parent="77e6c97f196da883-4" vertex="1">
          <mxGeometry x="20" y="280" width="100" height="60" as="geometry"/>
        </mxCell>
        <mxCell id="77e6c97f196da883-5" value="consume-market-soa" style="swimlane;html=1;startSize=20;" parent="77e6c97f196da883-1" vertex="1">
          <mxGeometry x="480" y="20" width="160" height="730" as="geometry"/>
        </mxCell>
        <mxCell id="5xU71n-PB1a8egIvaby4-10" value="" style="edgeStyle=orthogonalEdgeStyle;rounded=0;orthogonalLoop=1;jettySize=auto;html=1;" parent="77e6c97f196da883-5" source="77e6c97f196da883-15" target="5xU71n-PB1a8egIvaby4-9" edge="1">
          <mxGeometry relative="1" as="geometry"/>
        </mxCell>
        <mxCell id="77e6c97f196da883-15" value="solr" style="rounded=1;whiteSpace=wrap;html=1;shadow=0;labelBackgroundColor=none;strokeColor=#000000;strokeWidth=1;fillColor=#ffffff;fontFamily=Verdana;fontSize=8;fontColor=#000000;align=center;" parent="77e6c97f196da883-5" vertex="1">
          <mxGeometry x="20" y="160" width="100" height="60" as="geometry"/>
        </mxCell>
        <mxCell id="5xU71n-PB1a8egIvaby4-9" value="solrQueryV2" style="rounded=1;whiteSpace=wrap;html=1;shadow=0;labelBackgroundColor=none;strokeColor=#000000;strokeWidth=1;fillColor=#ffffff;fontFamily=Verdana;fontSize=8;fontColor=#000000;align=center;" parent="77e6c97f196da883-5" vertex="1">
          <mxGeometry x="20" y="300" width="100" height="60" as="geometry"/>
        </mxCell>
        <mxCell id="5xU71n-PB1a8egIvaby4-16" value="&lt;pre style=&quot;font-family: &amp;#34;source code pro&amp;#34;&quot;&gt;&lt;font style=&quot;font-size: 11px&quot;&gt;getSolrResponse&lt;/font&gt;&lt;/pre&gt;" style="rounded=1;whiteSpace=wrap;html=1;shadow=0;labelBackgroundColor=none;strokeColor=#000000;strokeWidth=1;fillColor=#ffffff;fontFamily=Verdana;fontSize=8;fontColor=#000000;align=center;" parent="77e6c97f196da883-5" vertex="1">
          <mxGeometry x="20" y="420" width="100" height="60" as="geometry"/>
        </mxCell>
        <mxCell id="77e6c97f196da883-6" value="mmt-market-dal" style="swimlane;html=1;startSize=20;" parent="77e6c97f196da883-1" vertex="1">
          <mxGeometry x="640" y="20" width="160" height="730" as="geometry"/>
        </mxCell>
        <mxCell id="5xU71n-PB1a8egIvaby4-12" value="&lt;pre style=&quot;font-family: &amp;#34;source code pro&amp;#34;&quot;&gt;&lt;font style=&quot;font-size: 11px&quot;&gt;queryByEntity&lt;/font&gt;&lt;/pre&gt;&lt;pre style=&quot;font-family: &amp;#34;source code pro&amp;#34;&quot;&gt;&lt;font style=&quot;font-size: 11px&quot;&gt;PortraitDetailQuery&lt;/font&gt;&lt;/pre&gt;" style="rounded=1;whiteSpace=wrap;html=1;shadow=0;labelBackgroundColor=none;strokeColor=#000000;strokeWidth=1;fillColor=#ffffff;fontFamily=Verdana;fontSize=8;fontColor=#000000;align=center;" parent="77e6c97f196da883-6" vertex="1">
          <mxGeometry x="30" y="300" width="100" height="60" as="geometry"/>
        </mxCell>
        <mxCell id="77e6c97f196da883-7" value="tis-solrj-client" style="swimlane;html=1;startSize=20;" parent="77e6c97f196da883-1" vertex="1">
          <mxGeometry x="800" y="20" width="160" height="730" as="geometry"/>
        </mxCell>
        <mxCell id="5xU71n-PB1a8egIvaby4-19" value="&lt;pre style=&quot;font-family: &amp;#34;source code pro&amp;#34;&quot;&gt;&lt;pre style=&quot;font-family: &amp;#34;source code pro&amp;#34; ; font-size: 12pt&quot;&gt;query&lt;/pre&gt;&lt;/pre&gt;" style="rounded=1;whiteSpace=wrap;html=1;shadow=0;labelBackgroundColor=none;strokeColor=#000000;strokeWidth=1;fillColor=#ffffff;fontFamily=Verdana;fontSize=8;fontColor=#000000;align=center;" parent="77e6c97f196da883-7" vertex="1">
          <mxGeometry x="40" y="550" width="100" height="60" as="geometry"/>
        </mxCell>
        <mxCell id="5xU71n-PB1a8egIvaby4-6" value="Y" style="edgeStyle=orthogonalEdgeStyle;rounded=0;orthogonalLoop=1;jettySize=auto;html=1;entryX=0;entryY=0.5;entryDx=0;entryDy=0;" parent="77e6c97f196da883-1" source="5xU71n-PB1a8egIvaby4-1" target="5xU71n-PB1a8egIvaby4-4" edge="1">
          <mxGeometry relative="1" as="geometry">
            <Array as="points">
              <mxPoint x="240" y="330"/>
            </Array>
          </mxGeometry>
        </mxCell>
        <mxCell id="5xU71n-PB1a8egIvaby4-11" value="" style="edgeStyle=orthogonalEdgeStyle;rounded=0;orthogonalLoop=1;jettySize=auto;html=1;entryX=0;entryY=0.5;entryDx=0;entryDy=0;" parent="77e6c97f196da883-1" source="5xU71n-PB1a8egIvaby4-9" target="5xU71n-PB1a8egIvaby4-12" edge="1">
          <mxGeometry relative="1" as="geometry">
            <Array as="points">
              <mxPoint x="660" y="350"/>
            </Array>
          </mxGeometry>
        </mxCell>
        <mxCell id="5xU71n-PB1a8egIvaby4-18" value="" style="edgeStyle=orthogonalEdgeStyle;rounded=0;orthogonalLoop=1;jettySize=auto;html=1;" parent="77e6c97f196da883-1" source="5xU71n-PB1a8egIvaby4-12" edge="1">
          <mxGeometry relative="1" as="geometry">
            <mxPoint x="600" y="470" as="targetPoint"/>
            <Array as="points">
              <mxPoint x="730" y="470"/>
              <mxPoint x="600" y="470"/>
            </Array>
          </mxGeometry>
        </mxCell>
        <mxCell id="5xU71n-PB1a8egIvaby4-20" value="" style="edgeStyle=orthogonalEdgeStyle;rounded=0;orthogonalLoop=1;jettySize=auto;html=1;" parent="77e6c97f196da883-1" source="5xU71n-PB1a8egIvaby4-16" target="5xU71n-PB1a8egIvaby4-19" edge="1">
          <mxGeometry relative="1" as="geometry">
            <Array as="points">
              <mxPoint x="550" y="600"/>
            </Array>
          </mxGeometry>
        </mxCell>
        <mxCell id="5xU71n-PB1a8egIvaby4-26" style="edgeStyle=orthogonalEdgeStyle;rounded=0;orthogonalLoop=1;jettySize=auto;html=1;entryX=0;entryY=0.5;entryDx=0;entryDy=0;" parent="77e6c97f196da883-1" source="5xU71n-PB1a8egIvaby4-1" target="77e6c97f196da883-15" edge="1">
          <mxGeometry relative="1" as="geometry"/>
        </mxCell>
        <mxCell id="5xU71n-PB1a8egIvaby4-22" value="" style="edgeStyle=orthogonalEdgeStyle;rounded=0;orthogonalLoop=1;jettySize=auto;html=1;" parent="1" source="5xU71n-PB1a8egIvaby4-21" target="77e6c97f196da883-2" edge="1">
          <mxGeometry relative="1" as="geometry">
            <Array as="points">
              <mxPoint x="-10" y="140"/>
              <mxPoint x="-10" y="140"/>
            </Array>
          </mxGeometry>
        </mxCell>
        <mxCell id="5xU71n-PB1a8egIvaby4-21" value="REQUEST" style="strokeWidth=2;html=1;shape=mxgraph.flowchart.start_2;whiteSpace=wrap;" parent="1" vertex="1">
          <mxGeometry x="-70" y="90" width="100" height="100" as="geometry"/>
        </mxCell>
        <mxCell id="5xU71n-PB1a8egIvaby4-23" value="Response" style="strokeWidth=2;html=1;shape=mxgraph.flowchart.terminator;whiteSpace=wrap;" parent="1" vertex="1">
          <mxGeometry x="1090" y="700" width="100" height="60" as="geometry"/>
        </mxCell>
        <mxCell id="5xU71n-PB1a8egIvaby4-24" style="edgeStyle=orthogonalEdgeStyle;rounded=0;orthogonalLoop=1;jettySize=auto;html=1;" parent="1" source="5xU71n-PB1a8egIvaby4-4" edge="1">
          <mxGeometry relative="1" as="geometry">
            <mxPoint x="1090" y="730" as="targetPoint"/>
            <Array as="points">
              <mxPoint x="460" y="730"/>
            </Array>
          </mxGeometry>
        </mxCell>
        <mxCell id="5xU71n-PB1a8egIvaby4-25" style="edgeStyle=orthogonalEdgeStyle;rounded=0;orthogonalLoop=1;jettySize=auto;html=1;entryX=0.5;entryY=0;entryDx=0;entryDy=0;entryPerimeter=0;" parent="1" source="5xU71n-PB1a8egIvaby4-19" target="5xU71n-PB1a8egIvaby4-23" edge="1">
          <mxGeometry relative="1" as="geometry"/>
        </mxCell>
        <mxCell id="IejGob8EOy32djd4-GF2-45" value="" style="group" parent="1" vertex="1" connectable="0">
          <mxGeometry x="-60" y="930" width="1460" height="750" as="geometry"/>
        </mxCell>
        <mxCell id="IejGob8EOy32djd4-GF2-1" value="filter_init_data" style="swimlane;html=1;childLayout=stackLayout;startSize=20;rounded=0;shadow=0;labelBackgroundColor=none;strokeColor=#000000;strokeWidth=1;fillColor=#ffffff;fontFamily=Verdana;fontSize=8;fontColor=#000000;align=center;" parent="IejGob8EOy32djd4-GF2-45" vertex="1">
          <mxGeometry x="136" width="1130" height="750" as="geometry"/>
        </mxCell>
        <mxCell id="IejGob8EOy32djd4-GF2-2" value="integral-api" style="swimlane;html=1;startSize=20;" parent="IejGob8EOy32djd4-GF2-1" vertex="1">
          <mxGeometry y="20" width="160" height="730" as="geometry"/>
        </mxCell>
        <mxCell id="AsiunCESyInL2TfsduPu-1" value="" style="group" vertex="1" connectable="0" parent="IejGob8EOy32djd4-GF2-2">
          <mxGeometry y="65" width="140" height="305" as="geometry"/>
        </mxCell>
        <mxCell id="IejGob8EOy32djd4-GF2-4" value="Controller" style="rounded=1;whiteSpace=wrap;html=1;shadow=0;labelBackgroundColor=none;strokeColor=#000000;strokeWidth=1;fillColor=#ffffff;fontFamily=Verdana;fontSize=8;fontColor=#000000;align=center;" parent="AsiunCESyInL2TfsduPu-1" vertex="1">
          <mxGeometry x="20" width="100" height="60" as="geometry"/>
        </mxCell>
        <mxCell id="IejGob8EOy32djd4-GF2-6" value="&lt;pre style=&quot;font-family: &amp;#34;source code pro&amp;#34; ; font-size: 12pt&quot;&gt;filterInitData&lt;/pre&gt;" style="rounded=1;whiteSpace=wrap;html=1;shadow=0;labelBackgroundColor=none;strokeColor=#000000;strokeWidth=1;fillColor=#ffffff;fontFamily=Verdana;fontSize=8;fontColor=#000000;align=center;" parent="AsiunCESyInL2TfsduPu-1" vertex="1">
          <mxGeometry x="20" y="105" width="100" height="60" as="geometry"/>
        </mxCell>
        <mxCell id="IejGob8EOy32djd4-GF2-3" value="" style="edgeStyle=orthogonalEdgeStyle;rounded=0;orthogonalLoop=1;jettySize=auto;html=1;" parent="AsiunCESyInL2TfsduPu-1" source="IejGob8EOy32djd4-GF2-4" target="IejGob8EOy32djd4-GF2-6" edge="1">
          <mxGeometry relative="1" as="geometry"/>
        </mxCell>
        <mxCell id="IejGob8EOy32djd4-GF2-7" value="&lt;pre style=&quot;font-family: &amp;#34;source code pro&amp;#34;&quot;&gt;&lt;font style=&quot;font-size: 11px&quot;&gt;new FilterInitDataRequest&lt;/font&gt;&lt;/pre&gt;" style="rounded=1;whiteSpace=wrap;html=1;shadow=0;labelBackgroundColor=none;strokeColor=#000000;strokeWidth=1;fillColor=#ffffff;fontFamily=Verdana;fontSize=8;fontColor=#000000;align=center;" parent="AsiunCESyInL2TfsduPu-1" vertex="1">
          <mxGeometry y="245" width="140" height="60" as="geometry"/>
        </mxCell>
        <mxCell id="IejGob8EOy32djd4-GF2-5" value="" style="edgeStyle=orthogonalEdgeStyle;rounded=0;orthogonalLoop=1;jettySize=auto;html=1;" parent="AsiunCESyInL2TfsduPu-1" source="IejGob8EOy32djd4-GF2-6" target="IejGob8EOy32djd4-GF2-7" edge="1">
          <mxGeometry relative="1" as="geometry"/>
        </mxCell>
        <mxCell id="IejGob8EOy32djd4-GF2-8" value="activity-platform" style="swimlane;html=1;startSize=20;" parent="IejGob8EOy32djd4-GF2-1" vertex="1">
          <mxGeometry x="160" y="20" width="160" height="730" as="geometry"/>
        </mxCell>
        <mxCell id="IejGob8EOy32djd4-GF2-9" value="" style="edgeStyle=orthogonalEdgeStyle;rounded=0;orthogonalLoop=1;jettySize=auto;html=1;" parent="IejGob8EOy32djd4-GF2-8" source="IejGob8EOy32djd4-GF2-10" target="IejGob8EOy32djd4-GF2-12" edge="1">
          <mxGeometry relative="1" as="geometry"/>
        </mxCell>
        <mxCell id="IejGob8EOy32djd4-GF2-10" value="execute" style="rounded=1;whiteSpace=wrap;html=1;shadow=0;labelBackgroundColor=none;strokeColor=#000000;strokeWidth=1;fillColor=#ffffff;fontFamily=Verdana;fontSize=8;fontColor=#000000;align=center;" parent="IejGob8EOy32djd4-GF2-8" vertex="1">
          <mxGeometry x="30" y="80" width="120" height="60" as="geometry"/>
        </mxCell>
        <mxCell id="IejGob8EOy32djd4-GF2-11" value="" style="edgeStyle=orthogonalEdgeStyle;rounded=0;orthogonalLoop=1;jettySize=auto;html=1;" parent="IejGob8EOy32djd4-GF2-8" source="IejGob8EOy32djd4-GF2-12" target="IejGob8EOy32djd4-GF2-14" edge="1">
          <mxGeometry relative="1" as="geometry"/>
        </mxCell>
        <mxCell id="IejGob8EOy32djd4-GF2-12" value="&lt;pre style=&quot;font-family: &amp;#34;source code pro&amp;#34; ; font-size: 10px&quot;&gt;&lt;span style=&quot;font-size: 10px&quot;&gt;F&lt;/span&gt;&lt;font style=&quot;font-size: 10px&quot;&gt;ilterInitDataExecutor&lt;/font&gt;&lt;/pre&gt;" style="rounded=1;whiteSpace=wrap;html=1;shadow=0;labelBackgroundColor=none;strokeColor=#000000;strokeWidth=1;fillColor=#ffffff;fontFamily=Verdana;fontSize=8;fontColor=#000000;align=center;" parent="IejGob8EOy32djd4-GF2-8" vertex="1">
          <mxGeometry x="30" y="190" width="120" height="60" as="geometry"/>
        </mxCell>
        <mxCell id="IejGob8EOy32djd4-GF2-13" value="" style="edgeStyle=orthogonalEdgeStyle;rounded=0;orthogonalLoop=1;jettySize=auto;html=1;" parent="IejGob8EOy32djd4-GF2-8" source="IejGob8EOy32djd4-GF2-14" target="IejGob8EOy32djd4-GF2-15" edge="1">
          <mxGeometry relative="1" as="geometry"/>
        </mxCell>
        <mxCell id="IejGob8EOy32djd4-GF2-14" value="&lt;pre style=&quot;font-family: &amp;#34;source code pro&amp;#34; ; font-size: 10px&quot;&gt;&lt;span style=&quot;font-size: 10px&quot;&gt;F&lt;/span&gt;&lt;font style=&quot;font-size: 10px&quot;&gt;ilterInitDataExecutor&lt;/font&gt;&lt;/pre&gt;" style="rounded=1;whiteSpace=wrap;html=1;shadow=0;labelBackgroundColor=none;strokeColor=#000000;strokeWidth=1;fillColor=#ffffff;fontFamily=Verdana;fontSize=8;fontColor=#000000;align=center;" parent="IejGob8EOy32djd4-GF2-8" vertex="1">
          <mxGeometry x="30" y="330" width="120" height="60" as="geometry"/>
        </mxCell>
        <mxCell id="IejGob8EOy32djd4-GF2-15" value="&lt;pre style=&quot;font-family: &amp;#34;source code pro&amp;#34;&quot;&gt;&lt;pre style=&quot;font-family: &amp;#34;source code pro&amp;#34;&quot;&gt;&lt;font style=&quot;font-size: 11px&quot;&gt;getFilterListInitData&lt;/font&gt;&lt;/pre&gt;&lt;/pre&gt;" style="rounded=1;whiteSpace=wrap;html=1;shadow=0;labelBackgroundColor=none;strokeColor=#000000;strokeWidth=1;fillColor=#ffffff;fontFamily=Verdana;fontSize=8;fontColor=#000000;align=center;" parent="IejGob8EOy32djd4-GF2-8" vertex="1">
          <mxGeometry x="30" y="420" width="120" height="60" as="geometry"/>
        </mxCell>
        <mxCell id="IejGob8EOy32djd4-GF2-16" value="shop-member" style="swimlane;html=1;startSize=20;" parent="IejGob8EOy32djd4-GF2-1" vertex="1">
          <mxGeometry x="320" y="20" width="160" height="730" as="geometry"/>
        </mxCell>
        <mxCell id="IejGob8EOy32djd4-GF2-17" value="consume-market-soa" style="swimlane;html=1;startSize=20;" parent="IejGob8EOy32djd4-GF2-1" vertex="1">
          <mxGeometry x="480" y="20" width="160" height="730" as="geometry"/>
        </mxCell>
        <mxCell id="IejGob8EOy32djd4-GF2-18" value="&lt;pre style=&quot;font-family: &amp;#34;source code pro&amp;#34;&quot;&gt;&lt;font style=&quot;font-size: 11px&quot;&gt;getCardAndLevelsV2&lt;/font&gt;&lt;/pre&gt;" style="rounded=1;whiteSpace=wrap;html=1;shadow=0;labelBackgroundColor=none;strokeColor=#000000;strokeWidth=1;fillColor=#ffffff;fontFamily=Verdana;fontSize=8;fontColor=#000000;align=center;" parent="IejGob8EOy32djd4-GF2-17" vertex="1">
          <mxGeometry x="17" y="300" width="140" height="60" as="geometry"/>
        </mxCell>
        <mxCell id="IejGob8EOy32djd4-GF2-19" value="&lt;pre style=&quot;font-family: &amp;#34;source code pro&amp;#34;&quot;&gt;&lt;pre style=&quot;font-family: &amp;#34;source code pro&amp;#34;&quot;&gt;&lt;font style=&quot;font-size: 11px&quot;&gt;assembleShopWechatInfos&lt;/font&gt;&lt;/pre&gt;&lt;/pre&gt;" style="rounded=1;whiteSpace=wrap;html=1;shadow=0;labelBackgroundColor=none;strokeColor=#000000;strokeWidth=1;fillColor=#ffffff;fontFamily=Verdana;fontSize=8;fontColor=#000000;align=center;" parent="IejGob8EOy32djd4-GF2-17" vertex="1">
          <mxGeometry x="18" y="390" width="140" height="60" as="geometry"/>
        </mxCell>
        <mxCell id="IejGob8EOy32djd4-GF2-20" value="&lt;pre style=&quot;font-family: &amp;#34;source code pro&amp;#34;&quot;&gt;&lt;pre style=&quot;font-family: &amp;#34;source code pro&amp;#34;&quot;&gt;&lt;pre style=&quot;font-family: &amp;#34;source code pro&amp;#34;&quot;&gt;&lt;font style=&quot;font-size: 11px&quot;&gt;filterConditionListV2&lt;/font&gt;&lt;/pre&gt;&lt;/pre&gt;&lt;/pre&gt;" style="rounded=1;whiteSpace=wrap;html=1;shadow=0;labelBackgroundColor=none;strokeColor=#000000;strokeWidth=1;fillColor=#ffffff;fontFamily=Verdana;fontSize=8;fontColor=#000000;align=center;" parent="IejGob8EOy32djd4-GF2-17" vertex="1">
          <mxGeometry x="18" y="500" width="120" height="60" as="geometry"/>
        </mxCell>
        <mxCell id="IejGob8EOy32djd4-GF2-21" value="mmt-market-dal" style="swimlane;html=1;startSize=20;" parent="IejGob8EOy32djd4-GF2-1" vertex="1">
          <mxGeometry x="640" y="20" width="160" height="730" as="geometry"/>
        </mxCell>
        <mxCell id="IejGob8EOy32djd4-GF2-22" value="&lt;pre style=&quot;font-family: &amp;#34;source code pro&amp;#34;&quot;&gt;&lt;pre style=&quot;font-family: &amp;#34;source code pro&amp;#34;&quot;&gt;&lt;font style=&quot;font-size: 11px&quot;&gt;ShopKind&lt;/font&gt;&lt;/pre&gt;&lt;pre style=&quot;font-family: &amp;#34;source code pro&amp;#34;&quot;&gt;&lt;font style=&quot;font-size: 11px&quot;&gt;CardStatisticsService&lt;/font&gt;&lt;/pre&gt;&lt;/pre&gt;" style="rounded=1;whiteSpace=wrap;html=1;shadow=0;labelBackgroundColor=none;strokeColor=#000000;strokeWidth=1;fillColor=#ffffff;fontFamily=Verdana;fontSize=8;fontColor=#000000;align=center;" parent="IejGob8EOy32djd4-GF2-21" vertex="1">
          <mxGeometry x="24" y="285" width="130" height="90" as="geometry"/>
        </mxCell>
        <mxCell id="IejGob8EOy32djd4-GF2-23" value="&lt;pre style=&quot;font-family: &amp;#34;source code pro&amp;#34;&quot;&gt;&lt;pre style=&quot;font-family: &amp;#34;source code pro&amp;#34;&quot;&gt;&lt;pre style=&quot;font-family: &amp;#34;source code pro&amp;#34;&quot;&gt;&lt;pre style=&quot;font-family: &amp;#34;source code pro&amp;#34;&quot;&gt;&lt;font style=&quot;font-size: 11px&quot;&gt;getFilterCondition&lt;/font&gt;&lt;/pre&gt;&lt;/pre&gt;&lt;/pre&gt;&lt;/pre&gt;" style="rounded=1;whiteSpace=wrap;html=1;shadow=0;labelBackgroundColor=none;strokeColor=#000000;strokeWidth=1;fillColor=#ffffff;fontFamily=Verdana;fontSize=8;fontColor=#000000;align=center;" parent="IejGob8EOy32djd4-GF2-21" vertex="1">
          <mxGeometry x="24" y="500" width="120" height="60" as="geometry"/>
        </mxCell>
        <mxCell id="IejGob8EOy32djd4-GF2-24" value="tis-solrj-client" style="swimlane;html=1;startSize=20;" parent="IejGob8EOy32djd4-GF2-1" vertex="1">
          <mxGeometry x="800" y="20" width="160" height="730" as="geometry"/>
        </mxCell>
        <mxCell id="IejGob8EOy32djd4-GF2-25" value="wechat-client" style="swimlane;html=1;startSize=20;" parent="IejGob8EOy32djd4-GF2-1" vertex="1">
          <mxGeometry x="960" y="20" width="170" height="730" as="geometry"/>
        </mxCell>
        <mxCell id="IejGob8EOy32djd4-GF2-26" value="&lt;pre style=&quot;font-family: &amp;#34;source code pro&amp;#34;&quot;&gt;&lt;font style=&quot;font-size: 11px&quot;&gt;getWechatInfoByEntityId&lt;/font&gt;&lt;/pre&gt;" style="rounded=1;whiteSpace=wrap;html=1;fillColor=none;" parent="IejGob8EOy32djd4-GF2-25" vertex="1">
          <mxGeometry x="4" y="155" width="150" height="70" as="geometry"/>
        </mxCell>
        <mxCell id="IejGob8EOy32djd4-GF2-27" value="" style="edgeStyle=orthogonalEdgeStyle;rounded=0;orthogonalLoop=1;jettySize=auto;html=1;entryX=0;entryY=0.5;entryDx=0;entryDy=0;exitX=1;exitY=0.5;exitDx=0;exitDy=0;" parent="IejGob8EOy32djd4-GF2-1" source="IejGob8EOy32djd4-GF2-18" target="IejGob8EOy32djd4-GF2-22" edge="1">
          <mxGeometry relative="1" as="geometry">
            <Array as="points">
              <mxPoint x="660" y="350"/>
            </Array>
            <mxPoint x="600" y="350" as="sourcePoint"/>
          </mxGeometry>
        </mxCell>
        <mxCell id="IejGob8EOy32djd4-GF2-28" style="edgeStyle=orthogonalEdgeStyle;rounded=0;orthogonalLoop=1;jettySize=auto;html=1;entryX=0;entryY=0.5;entryDx=0;entryDy=0;" parent="IejGob8EOy32djd4-GF2-1" source="IejGob8EOy32djd4-GF2-7" target="IejGob8EOy32djd4-GF2-10" edge="1">
          <mxGeometry relative="1" as="geometry">
            <Array as="points">
              <mxPoint x="174" y="360"/>
              <mxPoint x="174" y="130"/>
            </Array>
          </mxGeometry>
        </mxCell>
        <mxCell id="IejGob8EOy32djd4-GF2-29" style="edgeStyle=orthogonalEdgeStyle;rounded=0;orthogonalLoop=1;jettySize=auto;html=1;entryX=0;entryY=0.5;entryDx=0;entryDy=0;" parent="IejGob8EOy32djd4-GF2-1" source="IejGob8EOy32djd4-GF2-15" target="IejGob8EOy32djd4-GF2-18" edge="1">
          <mxGeometry relative="1" as="geometry"/>
        </mxCell>
        <mxCell id="IejGob8EOy32djd4-GF2-30" style="edgeStyle=orthogonalEdgeStyle;rounded=0;orthogonalLoop=1;jettySize=auto;html=1;" parent="IejGob8EOy32djd4-GF2-1" source="IejGob8EOy32djd4-GF2-15" target="IejGob8EOy32djd4-GF2-19" edge="1">
          <mxGeometry relative="1" as="geometry"/>
        </mxCell>
        <mxCell id="IejGob8EOy32djd4-GF2-31" style="edgeStyle=orthogonalEdgeStyle;rounded=0;orthogonalLoop=1;jettySize=auto;html=1;entryX=0;entryY=0.5;entryDx=0;entryDy=0;" parent="IejGob8EOy32djd4-GF2-1" source="IejGob8EOy32djd4-GF2-15" target="IejGob8EOy32djd4-GF2-20" edge="1">
          <mxGeometry relative="1" as="geometry"/>
        </mxCell>
        <mxCell id="IejGob8EOy32djd4-GF2-32" value="" style="edgeStyle=orthogonalEdgeStyle;rounded=0;orthogonalLoop=1;jettySize=auto;html=1;" parent="IejGob8EOy32djd4-GF2-1" source="IejGob8EOy32djd4-GF2-20" target="IejGob8EOy32djd4-GF2-23" edge="1">
          <mxGeometry relative="1" as="geometry"/>
        </mxCell>
        <mxCell id="IejGob8EOy32djd4-GF2-33" style="edgeStyle=orthogonalEdgeStyle;rounded=0;orthogonalLoop=1;jettySize=auto;html=1;entryX=0.5;entryY=1;entryDx=0;entryDy=0;" parent="IejGob8EOy32djd4-GF2-1" source="IejGob8EOy32djd4-GF2-19" target="IejGob8EOy32djd4-GF2-26" edge="1">
          <mxGeometry relative="1" as="geometry">
            <mxPoint x="1024" y="250" as="targetPoint"/>
          </mxGeometry>
        </mxCell>
        <mxCell id="IejGob8EOy32djd4-GF2-34" style="edgeStyle=orthogonalEdgeStyle;rounded=0;orthogonalLoop=1;jettySize=auto;html=1;entryX=1;entryY=0.5;entryDx=0;entryDy=0;" parent="IejGob8EOy32djd4-GF2-1" source="IejGob8EOy32djd4-GF2-18" target="IejGob8EOy32djd4-GF2-15" edge="1">
          <mxGeometry relative="1" as="geometry"/>
        </mxCell>
        <mxCell id="IejGob8EOy32djd4-GF2-35" style="edgeStyle=orthogonalEdgeStyle;rounded=0;orthogonalLoop=1;jettySize=auto;html=1;entryX=1;entryY=0.5;entryDx=0;entryDy=0;" parent="IejGob8EOy32djd4-GF2-1" source="IejGob8EOy32djd4-GF2-19" target="IejGob8EOy32djd4-GF2-15" edge="1">
          <mxGeometry relative="1" as="geometry"/>
        </mxCell>
        <mxCell id="IejGob8EOy32djd4-GF2-36" style="edgeStyle=orthogonalEdgeStyle;rounded=0;orthogonalLoop=1;jettySize=auto;html=1;entryX=1;entryY=0.5;entryDx=0;entryDy=0;" parent="IejGob8EOy32djd4-GF2-1" source="IejGob8EOy32djd4-GF2-20" target="IejGob8EOy32djd4-GF2-15" edge="1">
          <mxGeometry relative="1" as="geometry"/>
        </mxCell>
        <mxCell id="IejGob8EOy32djd4-GF2-44" style="edgeStyle=orthogonalEdgeStyle;rounded=0;orthogonalLoop=1;jettySize=auto;html=1;entryX=1;entryY=0.5;entryDx=0;entryDy=0;" parent="IejGob8EOy32djd4-GF2-1" source="IejGob8EOy32djd4-GF2-23" target="IejGob8EOy32djd4-GF2-20" edge="1">
          <mxGeometry relative="1" as="geometry"/>
        </mxCell>
        <mxCell id="IejGob8EOy32djd4-GF2-37" value="" style="edgeStyle=orthogonalEdgeStyle;rounded=0;orthogonalLoop=1;jettySize=auto;html=1;" parent="IejGob8EOy32djd4-GF2-45" source="IejGob8EOy32djd4-GF2-38" target="IejGob8EOy32djd4-GF2-2" edge="1">
          <mxGeometry relative="1" as="geometry">
            <Array as="points">
              <mxPoint x="60" y="120"/>
              <mxPoint x="60" y="120"/>
            </Array>
          </mxGeometry>
        </mxCell>
        <mxCell id="IejGob8EOy32djd4-GF2-38" value="REQUEST" style="strokeWidth=2;html=1;shape=mxgraph.flowchart.start_2;whiteSpace=wrap;" parent="IejGob8EOy32djd4-GF2-45" vertex="1">
          <mxGeometry y="70" width="100" height="100" as="geometry"/>
        </mxCell>
        <mxCell id="IejGob8EOy32djd4-GF2-39" value="Response" style="strokeWidth=2;html=1;shape=mxgraph.flowchart.terminator;whiteSpace=wrap;" parent="IejGob8EOy32djd4-GF2-45" vertex="1">
          <mxGeometry x="1360" y="670" width="100" height="60" as="geometry"/>
        </mxCell>
        <mxCell id="IejGob8EOy32djd4-GF2-40" style="edgeStyle=orthogonalEdgeStyle;rounded=0;orthogonalLoop=1;jettySize=auto;html=1;entryX=1;entryY=0.75;entryDx=0;entryDy=0;dashed=1;" parent="IejGob8EOy32djd4-GF2-45" source="IejGob8EOy32djd4-GF2-41" target="IejGob8EOy32djd4-GF2-23" edge="1">
          <mxGeometry relative="1" as="geometry">
            <Array as="points">
              <mxPoint x="1220" y="565"/>
            </Array>
          </mxGeometry>
        </mxCell>
        <mxCell id="IejGob8EOy32djd4-GF2-41" value="DB" style="strokeWidth=2;html=1;shape=mxgraph.flowchart.database;whiteSpace=wrap;" parent="IejGob8EOy32djd4-GF2-45" vertex="1">
          <mxGeometry x="1390" y="520" width="60" height="60" as="geometry"/>
        </mxCell>
        <mxCell id="IejGob8EOy32djd4-GF2-42" style="edgeStyle=orthogonalEdgeStyle;rounded=0;orthogonalLoop=1;jettySize=auto;html=1;" parent="IejGob8EOy32djd4-GF2-45" source="IejGob8EOy32djd4-GF2-23" target="IejGob8EOy32djd4-GF2-41" edge="1">
          <mxGeometry relative="1" as="geometry"/>
        </mxCell>
        <mxCell id="IejGob8EOy32djd4-GF2-43" style="edgeStyle=orthogonalEdgeStyle;rounded=0;orthogonalLoop=1;jettySize=auto;html=1;entryX=-0.01;entryY=0.617;entryDx=0;entryDy=0;entryPerimeter=0;" parent="IejGob8EOy32djd4-GF2-45" source="IejGob8EOy32djd4-GF2-15" target="IejGob8EOy32djd4-GF2-39" edge="1">
          <mxGeometry relative="1" as="geometry">
            <Array as="points">
              <mxPoint x="386" y="707"/>
            </Array>
          </mxGeometry>
        </mxCell>
      </root>
    </mxGraphModel>
  </diagram>
</mxfile>
